G04 #@! TF.GenerationSoftware,KiCad,Pcbnew,(6.0.5-0)*
G04 #@! TF.CreationDate,2022-05-27T19:59:22+09:00*
G04 #@! TF.ProjectId,RL78TrainingBoard,524c3738-5472-4616-996e-696e67426f61,V1.0*
G04 #@! TF.SameCoordinates,Original*
G04 #@! TF.FileFunction,Soldermask,Top*
G04 #@! TF.FilePolarity,Negative*
%FSLAX46Y46*%
G04 Gerber Fmt 4.6, Leading zero omitted, Abs format (unit mm)*
G04 Created by KiCad (PCBNEW (6.0.5-0)) date 2022-05-27 19:59:22*
%MOMM*%
%LPD*%
G01*
G04 APERTURE LIST*
G04 Aperture macros list*
%AMRoundRect*
0 Rectangle with rounded corners*
0 $1 Rounding radius*
0 $2 $3 $4 $5 $6 $7 $8 $9 X,Y pos of 4 corners*
0 Add a 4 corners polygon primitive as box body*
4,1,4,$2,$3,$4,$5,$6,$7,$8,$9,$2,$3,0*
0 Add four circle primitives for the rounded corners*
1,1,$1+$1,$2,$3*
1,1,$1+$1,$4,$5*
1,1,$1+$1,$6,$7*
1,1,$1+$1,$8,$9*
0 Add four rect primitives between the rounded corners*
20,1,$1+$1,$2,$3,$4,$5,0*
20,1,$1+$1,$4,$5,$6,$7,0*
20,1,$1+$1,$6,$7,$8,$9,0*
20,1,$1+$1,$8,$9,$2,$3,0*%
G04 Aperture macros list end*
%ADD10RoundRect,0.300000X0.300000X0.500000X-0.300000X0.500000X-0.300000X-0.500000X0.300000X-0.500000X0*%
%ADD11R,1.500000X1.500000*%
%ADD12C,1.500000*%
%ADD13R,1.100000X0.800000*%
%ADD14RoundRect,0.200000X0.250000X0.200000X-0.250000X0.200000X-0.250000X-0.200000X0.250000X-0.200000X0*%
%ADD15RoundRect,0.200000X-0.250000X-0.200000X0.250000X-0.200000X0.250000X0.200000X-0.250000X0.200000X0*%
%ADD16RoundRect,0.150000X-0.150000X0.150000X-0.150000X-0.150000X0.150000X-0.150000X0.150000X0.150000X0*%
%ADD17RoundRect,0.200000X0.200000X-0.250000X0.200000X0.250000X-0.200000X0.250000X-0.200000X-0.250000X0*%
%ADD18R,2.000000X2.000000*%
%ADD19C,1.700000*%
%ADD20C,1.600000*%
%ADD21R,1.600000X1.600000*%
%ADD22RoundRect,0.150000X0.150000X-0.150000X0.150000X0.150000X-0.150000X0.150000X-0.150000X-0.150000X0*%
%ADD23R,3.500000X2.000000*%
%ADD24C,1.800000*%
%ADD25R,1.800000X1.800000*%
%ADD26RoundRect,0.300000X-0.300000X-0.500000X0.300000X-0.500000X0.300000X0.500000X-0.300000X0.500000X0*%
%ADD27RoundRect,0.250000X-1.500000X-0.550000X1.500000X-0.550000X1.500000X0.550000X-1.500000X0.550000X0*%
%ADD28RoundRect,0.200000X-0.200000X0.250000X-0.200000X-0.250000X0.200000X-0.250000X0.200000X0.250000X0*%
%ADD29R,3.200000X2.000000*%
%ADD30R,1.400000X0.400000*%
%ADD31R,3.000000X2.200000*%
%ADD32O,1.500000X1.500000*%
%ADD33C,0.750000*%
%ADD34R,1.600000X1.000000*%
%ADD35C,3.200000*%
%ADD36R,1.600000X1.500000*%
%ADD37RoundRect,0.150000X-0.675000X-0.150000X0.675000X-0.150000X0.675000X0.150000X-0.675000X0.150000X0*%
%ADD38R,1.400000X1.400000*%
%ADD39C,1.400000*%
%ADD40RoundRect,0.150000X0.725000X0.150000X-0.725000X0.150000X-0.725000X-0.150000X0.725000X-0.150000X0*%
%ADD41R,1.400000X0.300000*%
%ADD42R,0.300000X1.400000*%
%ADD43R,1.800000X1.200000*%
%ADD44R,1.524000X1.700000*%
%ADD45C,1.524000*%
%ADD46R,1.100000X0.300000*%
%ADD47R,1.200000X0.300000*%
%ADD48R,0.800000X1.100000*%
G04 APERTURE END LIST*
D10*
X42100000Y41500000D03*
X38900000Y41500000D03*
D11*
X-44270000Y-6380000D03*
D12*
X-41730000Y-6380000D03*
X-44270000Y-8920000D03*
X-41730000Y-8920000D03*
X-44270000Y-11460000D03*
X-41730000Y-11460000D03*
X-44270000Y-14000000D03*
X-41730000Y-14000000D03*
X-44270000Y-16540000D03*
X-41730000Y-16540000D03*
X-44270000Y-19080000D03*
X-41730000Y-19080000D03*
X-44270000Y-21620000D03*
X-41730000Y-21620000D03*
D13*
X23900000Y12950000D03*
X23900000Y11050000D03*
X26100000Y12000000D03*
D12*
X-34000000Y-46000000D03*
D14*
X-9150000Y33600000D03*
X-10850000Y33600000D03*
D15*
X-10850000Y35200000D03*
X-9150000Y35200000D03*
D16*
X-19500000Y-12000000D03*
X-19500000Y-13000000D03*
D17*
X6900000Y22550000D03*
X6900000Y24250000D03*
X2100000Y22550000D03*
X2100000Y24250000D03*
D15*
X-6050000Y-900000D03*
X-4350000Y-900000D03*
D14*
X-27550000Y18400000D03*
X-29250000Y18400000D03*
D18*
X-25000000Y-43000000D03*
X-25000000Y-43000000D03*
D15*
X-36650000Y-3700000D03*
X-34950000Y-3700000D03*
X-25850000Y26500000D03*
X-24150000Y26500000D03*
D19*
X34250000Y-36750000D03*
X27750000Y-36750000D03*
X27750000Y-41250000D03*
X34250000Y-41250000D03*
D17*
X21500000Y-25850000D03*
X21500000Y-24150000D03*
X35000000Y21150000D03*
X35000000Y22850000D03*
X500000Y22550000D03*
X500000Y24250000D03*
D14*
X-34950000Y-6900000D03*
X-36650000Y-6900000D03*
D17*
X26300000Y-25850000D03*
X26300000Y-24150000D03*
D12*
X-23500000Y45100000D03*
X-21000000Y42600000D03*
X-18500000Y45100000D03*
D17*
X5300000Y22550000D03*
X5300000Y24250000D03*
X38800000Y34150000D03*
X38800000Y35850000D03*
D20*
X47500000Y2850000D03*
X47500000Y-6850000D03*
X37500000Y-2000000D03*
X37500000Y-4000000D03*
D21*
X37500000Y2000000D03*
D20*
X37500000Y0D03*
X37500000Y-6000000D03*
D22*
X-19500000Y-10600000D03*
X-19500000Y-9600000D03*
D23*
X36500000Y-25300000D03*
X46500000Y-25300000D03*
X46500000Y-10700000D03*
X36500000Y-10700000D03*
D24*
X35270000Y12000000D03*
D25*
X32730000Y12000000D03*
D15*
X1400000Y15000000D03*
X3100000Y15000000D03*
D26*
X-32900000Y13200000D03*
X-29700000Y13200000D03*
D27*
X-23600000Y34000000D03*
X-18200000Y34000000D03*
D19*
X34750000Y-43750000D03*
X41250000Y-43750000D03*
X34750000Y-48250000D03*
X41250000Y-48250000D03*
D17*
X33400000Y21150000D03*
X33400000Y22850000D03*
D15*
X-12100000Y15000000D03*
X-10400000Y15000000D03*
D19*
X48250000Y-36750000D03*
X41750000Y-36750000D03*
X41750000Y-41250000D03*
X48250000Y-41250000D03*
D15*
X-36650000Y-21700000D03*
X-34950000Y-21700000D03*
X14900000Y15000000D03*
X16600000Y15000000D03*
X-7600000Y15000000D03*
X-5900000Y15000000D03*
D28*
X7000000Y-42150000D03*
X7000000Y-43850000D03*
D14*
X-9150000Y40000000D03*
X-10850000Y40000000D03*
D29*
X44500000Y7700000D03*
X44500000Y16300000D03*
D30*
X-43000000Y7100000D03*
X-43000000Y6300000D03*
X-43000000Y5500000D03*
X-43000000Y4700000D03*
X-43000000Y3900000D03*
D31*
X-45500000Y1400000D03*
X-45500000Y9600000D03*
D19*
X3250000Y-45250000D03*
X-3250000Y-45250000D03*
X3250000Y-40750000D03*
X-3250000Y-40750000D03*
D15*
X-25850000Y18400000D03*
X-24150000Y18400000D03*
D17*
X10200000Y-43850000D03*
X10200000Y-42150000D03*
D15*
X-21850000Y-25500000D03*
X-20150000Y-25500000D03*
D14*
X20850000Y39500000D03*
X19150000Y39500000D03*
D11*
X23495000Y2160000D03*
D32*
X23495000Y-380000D03*
X23495000Y-2920000D03*
X23495000Y-5460000D03*
X23495000Y-8000000D03*
X23495000Y-10540000D03*
X23495000Y-13080000D03*
X23495000Y-15620000D03*
X23495000Y-18160000D03*
X31115000Y-18160000D03*
X31115000Y-15620000D03*
X31115000Y-13080000D03*
X31115000Y-10540000D03*
X31115000Y-8000000D03*
X31115000Y-5460000D03*
X31115000Y-2920000D03*
X31115000Y-380000D03*
X31115000Y2160000D03*
D19*
X41250000Y-29750000D03*
X34750000Y-29750000D03*
X34750000Y-34250000D03*
X41250000Y-34250000D03*
D15*
X5900000Y15000000D03*
X7600000Y15000000D03*
X-25850000Y23300000D03*
X-24150000Y23300000D03*
D28*
X8600000Y-42150000D03*
X8600000Y-43850000D03*
D14*
X-29650000Y15100000D03*
X-31350000Y15100000D03*
D19*
X-31400000Y-42000000D03*
X-31400000Y-40000000D03*
X-31400000Y-38000000D03*
X-38000000Y-31400000D03*
X-40000000Y-31400000D03*
X-42000000Y-31400000D03*
D15*
X-10850000Y36800000D03*
X-9150000Y36800000D03*
D11*
X-13810000Y2430000D03*
X-21430000Y-12810000D03*
D12*
X-21430000Y-10270000D03*
X-11270000Y2430000D03*
X-8730000Y2430000D03*
X-21430000Y-7730000D03*
X-6190000Y2430000D03*
X-21430000Y-5190000D03*
D17*
X-1100000Y22550000D03*
X-1100000Y24250000D03*
D12*
X-15796000Y-43081000D03*
X-14000000Y-41285000D03*
X-12204000Y-43081000D03*
D15*
X-36650000Y-5300000D03*
X-34950000Y-5300000D03*
D33*
X-33500000Y-13000000D03*
X-35300000Y-13000000D03*
D34*
X-34400000Y-15200000D03*
X-34400000Y-10800000D03*
D17*
X42000000Y34150000D03*
X42000000Y35850000D03*
D35*
X-40420000Y21500000D03*
X-40420000Y46500000D03*
D36*
X-39000000Y39540000D03*
D12*
X-39000000Y36770000D03*
X-39000000Y34000000D03*
X-39000000Y31230000D03*
X-39000000Y28460000D03*
X-41840000Y38155000D03*
X-41840000Y35385000D03*
X-41840000Y32615000D03*
X-41840000Y29845000D03*
D15*
X-36650000Y-500000D03*
X-34950000Y-500000D03*
D37*
X25875000Y-28095000D03*
X25875000Y-29365000D03*
X25875000Y-30635000D03*
X25875000Y-31905000D03*
X31125000Y-31905000D03*
X31125000Y-30635000D03*
X31125000Y-29365000D03*
X31125000Y-28095000D03*
D14*
X-27550000Y20000000D03*
X-29250000Y20000000D03*
D15*
X-25850000Y20000000D03*
X-24150000Y20000000D03*
D17*
X23100000Y-25850000D03*
X23100000Y-24150000D03*
D38*
X-45100000Y16950000D03*
D39*
X-42600000Y16950000D03*
X-40100000Y16950000D03*
X-45100000Y13650000D03*
X-42600000Y13650000D03*
X-40100000Y13650000D03*
D40*
X24775000Y25920000D03*
X24775000Y27190000D03*
X24775000Y28460000D03*
X24775000Y29730000D03*
X24775000Y31000000D03*
X24775000Y32270000D03*
X24775000Y33540000D03*
X24775000Y34810000D03*
X24775000Y36080000D03*
X15225000Y36080000D03*
X15225000Y34810000D03*
X15225000Y33540000D03*
X15225000Y32270000D03*
X15225000Y31000000D03*
X15225000Y29730000D03*
X15225000Y28460000D03*
X15225000Y27190000D03*
X15225000Y25920000D03*
D11*
X-28590000Y7050000D03*
D41*
X-13800000Y-7125000D03*
X-13800000Y-7775000D03*
D12*
X-28590000Y4510000D03*
X-28590000Y1970000D03*
D41*
X-13800000Y-8425000D03*
X-13800000Y-9075000D03*
D12*
X-28590000Y-570000D03*
D41*
X-13800000Y-9725000D03*
D12*
X-28590000Y-3110000D03*
X-28590000Y-5650000D03*
D41*
X-13800000Y-10375000D03*
X-13800000Y-11025000D03*
D12*
X-28590000Y-8190000D03*
X-28590000Y-10730000D03*
D41*
X-13800000Y-11675000D03*
X-13800000Y-12325000D03*
D12*
X-28590000Y-13270000D03*
X-28590000Y-15810000D03*
D41*
X-13800000Y-12975000D03*
X-13800000Y-13625000D03*
D12*
X-28590000Y-18350000D03*
D41*
X-13800000Y-14275000D03*
D12*
X-28590000Y-20890000D03*
D41*
X-13800000Y-14925000D03*
D12*
X-28590000Y-23430000D03*
X-28590000Y-25970000D03*
D41*
X-13850000Y-15575000D03*
X-13800000Y-16225000D03*
D12*
X-28590000Y-28510000D03*
D41*
X-13800000Y-16875000D03*
D12*
X-28590000Y-31050000D03*
D42*
X-11875000Y-18800000D03*
D12*
X-26050000Y-33590000D03*
D42*
X-11225000Y-18800000D03*
D12*
X-23510000Y-33590000D03*
X-20970000Y-33590000D03*
D42*
X-10575000Y-18800000D03*
D12*
X-18430000Y-33590000D03*
D42*
X-9925000Y-18800000D03*
D12*
X-15890000Y-33590000D03*
D42*
X-9275000Y-18800000D03*
X-8625000Y-18800000D03*
D12*
X-13350000Y-33590000D03*
X-10810000Y-33590000D03*
D42*
X-7975000Y-18800000D03*
X-7325000Y-18800000D03*
D12*
X-8270000Y-33590000D03*
D42*
X-6675000Y-18800000D03*
D12*
X-5730000Y-33590000D03*
D42*
X-6025000Y-18800000D03*
D12*
X-3190000Y-33590000D03*
D42*
X-5375000Y-18800000D03*
D12*
X-650000Y-33590000D03*
X1890000Y-33590000D03*
D42*
X-4725000Y-18800000D03*
X-4075000Y-18800000D03*
D12*
X4430000Y-33590000D03*
D42*
X-3425000Y-18800000D03*
D12*
X6970000Y-33590000D03*
X9510000Y-33590000D03*
D42*
X-2775000Y-18800000D03*
X-2125000Y-18800000D03*
D12*
X12050000Y-33590000D03*
X14590000Y-31050000D03*
D41*
X-200000Y-16875000D03*
X-200000Y-16225000D03*
D12*
X14590000Y-28510000D03*
X14590000Y-25970000D03*
D41*
X-200000Y-15575000D03*
D12*
X14590000Y-23430000D03*
D41*
X-200000Y-14925000D03*
D12*
X14590000Y-20890000D03*
D41*
X-200000Y-14275000D03*
X-200000Y-13625000D03*
D12*
X14590000Y-18350000D03*
D41*
X-200000Y-12975000D03*
D12*
X14590000Y-15810000D03*
D41*
X-200000Y-12325000D03*
D12*
X14590000Y-13270000D03*
D41*
X-200000Y-11675000D03*
D12*
X14590000Y-10730000D03*
D41*
X-200000Y-11025000D03*
D12*
X14590000Y-8190000D03*
X14590000Y-5650000D03*
D41*
X-200000Y-10375000D03*
D12*
X14590000Y-3110000D03*
D41*
X-200000Y-9725000D03*
X-200000Y-9075000D03*
D12*
X14590000Y-570000D03*
X14590000Y1970000D03*
D41*
X-200000Y-8425000D03*
X-200000Y-7775000D03*
D12*
X14590000Y4510000D03*
D41*
X-200000Y-7125000D03*
D12*
X14590000Y7050000D03*
X12050000Y9590000D03*
D42*
X-2125000Y-5200000D03*
X-2775000Y-5200000D03*
D12*
X9510000Y9590000D03*
D42*
X-3425000Y-5200000D03*
D12*
X6970000Y9590000D03*
D42*
X-4075000Y-5200000D03*
D12*
X4430000Y9590000D03*
D42*
X-4725000Y-5200000D03*
D12*
X1890000Y9590000D03*
X-650000Y9590000D03*
D42*
X-5375000Y-5200000D03*
X-6025000Y-5200000D03*
D12*
X-3190000Y9590000D03*
D42*
X-6675000Y-5200000D03*
D12*
X-5730000Y9590000D03*
X-8270000Y9590000D03*
D42*
X-7325000Y-5200000D03*
D12*
X-10810000Y9590000D03*
D42*
X-7975000Y-5200000D03*
D12*
X-13350000Y9590000D03*
D42*
X-8625000Y-5200000D03*
X-9275000Y-5200000D03*
D12*
X-15890000Y9590000D03*
D42*
X-9925000Y-5200000D03*
D12*
X-18430000Y9590000D03*
X-20970000Y9590000D03*
D42*
X-10575000Y-5200000D03*
D12*
X-23510000Y9590000D03*
D42*
X-11225000Y-5200000D03*
X-11875000Y-5200000D03*
D12*
X-26050000Y9590000D03*
D43*
X-17800000Y-12600000D03*
X-17800000Y-10000000D03*
D15*
X-36650000Y-2100000D03*
X-34950000Y-2100000D03*
D44*
X-37000000Y9540000D03*
D19*
X-37000000Y7000000D03*
X-37000000Y4460000D03*
D15*
X-10850000Y32000000D03*
X-9150000Y32000000D03*
D17*
X3700000Y22550000D03*
X3700000Y24250000D03*
X40400000Y34150000D03*
X40400000Y35850000D03*
D15*
X-25850000Y24900000D03*
X-24150000Y24900000D03*
D17*
X8500000Y22550000D03*
X8500000Y24250000D03*
D15*
X-16600000Y15000000D03*
X-14900000Y15000000D03*
X16150000Y-43000000D03*
X17850000Y-43000000D03*
D45*
X47000000Y34000000D03*
X-31460000Y26380000D03*
X-34000000Y26380000D03*
X-31460000Y28920000D03*
X-34000000Y28920000D03*
X-31460000Y31460000D03*
X-34000000Y31460000D03*
X-31460000Y34000000D03*
X-34000000Y34000000D03*
X-31460000Y36540000D03*
X-34000000Y36540000D03*
X-31460000Y39080000D03*
X-34000000Y39080000D03*
X-31460000Y41620000D03*
X-34000000Y41620000D03*
X47000000Y36540000D03*
X47000000Y39080000D03*
X47000000Y28920000D03*
X47000000Y31460000D03*
D18*
X23000000Y-43000000D03*
X23000000Y-43000000D03*
D28*
X24700000Y-24150000D03*
X24700000Y-25850000D03*
D46*
X-6200000Y37275000D03*
X-6200000Y36625000D03*
X-6200000Y35975000D03*
X-6200000Y35325000D03*
X-6200000Y34675000D03*
X-6200000Y34025000D03*
X-6200000Y33375000D03*
X-6200000Y32725000D03*
X200000Y32725000D03*
X200000Y33375000D03*
X200000Y34025000D03*
X200000Y34675000D03*
X200000Y35325000D03*
X200000Y35975000D03*
X200000Y36625000D03*
X200000Y37275000D03*
D47*
X-20900000Y26222500D03*
X-20900000Y25587500D03*
X-20900000Y24952500D03*
X-20900000Y24317500D03*
X-20900000Y23700000D03*
X-20900000Y23047500D03*
X-20900000Y22412500D03*
X-20900000Y21777500D03*
X-15100000Y21777500D03*
X-15100000Y22412500D03*
X-15100000Y23047500D03*
X-15100000Y23682500D03*
X-15100000Y24317500D03*
X-15100000Y24952500D03*
X-15100000Y25587500D03*
X-15100000Y26222500D03*
D17*
X-2700000Y22550000D03*
X-2700000Y24250000D03*
D15*
X-10850000Y38400000D03*
X-9150000Y38400000D03*
X-3100000Y15000000D03*
X-1400000Y15000000D03*
X-21850000Y-27100000D03*
X-20150000Y-27100000D03*
X10400000Y15000000D03*
X12100000Y15000000D03*
X-36650000Y-23300000D03*
X-34950000Y-23300000D03*
D48*
X40950000Y31100000D03*
X39050000Y31100000D03*
X40000000Y28900000D03*
D12*
X-46000000Y-34000000D03*
M02*
