G04 #@! TF.GenerationSoftware,KiCad,Pcbnew,(6.0.5-0)*
G04 #@! TF.CreationDate,2022-05-27T19:59:22+09:00*
G04 #@! TF.ProjectId,RL78TrainingBoard,524c3738-5472-4616-996e-696e67426f61,V1.0*
G04 #@! TF.SameCoordinates,Original*
G04 #@! TF.FileFunction,Paste,Top*
G04 #@! TF.FilePolarity,Positive*
%FSLAX46Y46*%
G04 Gerber Fmt 4.6, Leading zero omitted, Abs format (unit mm)*
G04 Created by KiCad (PCBNEW (6.0.5-0)) date 2022-05-27 19:59:22*
%MOMM*%
%LPD*%
G01*
G04 APERTURE LIST*
G04 Aperture macros list*
%AMRoundRect*
0 Rectangle with rounded corners*
0 $1 Rounding radius*
0 $2 $3 $4 $5 $6 $7 $8 $9 X,Y pos of 4 corners*
0 Add a 4 corners polygon primitive as box body*
4,1,4,$2,$3,$4,$5,$6,$7,$8,$9,$2,$3,0*
0 Add four circle primitives for the rounded corners*
1,1,$1+$1,$2,$3*
1,1,$1+$1,$4,$5*
1,1,$1+$1,$6,$7*
1,1,$1+$1,$8,$9*
0 Add four rect primitives between the rounded corners*
20,1,$1+$1,$2,$3,$4,$5,0*
20,1,$1+$1,$4,$5,$6,$7,0*
20,1,$1+$1,$6,$7,$8,$9,0*
20,1,$1+$1,$8,$9,$2,$3,0*%
G04 Aperture macros list end*
%ADD10RoundRect,0.300000X0.300000X0.500000X-0.300000X0.500000X-0.300000X-0.500000X0.300000X-0.500000X0*%
%ADD11R,1.100000X0.800000*%
%ADD12RoundRect,0.200000X0.250000X0.200000X-0.250000X0.200000X-0.250000X-0.200000X0.250000X-0.200000X0*%
%ADD13RoundRect,0.200000X-0.250000X-0.200000X0.250000X-0.200000X0.250000X0.200000X-0.250000X0.200000X0*%
%ADD14RoundRect,0.150000X-0.150000X0.150000X-0.150000X-0.150000X0.150000X-0.150000X0.150000X0.150000X0*%
%ADD15RoundRect,0.200000X0.200000X-0.250000X0.200000X0.250000X-0.200000X0.250000X-0.200000X-0.250000X0*%
%ADD16RoundRect,0.150000X0.150000X-0.150000X0.150000X0.150000X-0.150000X0.150000X-0.150000X-0.150000X0*%
%ADD17R,3.500000X2.000000*%
%ADD18RoundRect,0.300000X-0.300000X-0.500000X0.300000X-0.500000X0.300000X0.500000X-0.300000X0.500000X0*%
%ADD19RoundRect,0.250000X-1.500000X-0.550000X1.500000X-0.550000X1.500000X0.550000X-1.500000X0.550000X0*%
%ADD20RoundRect,0.200000X-0.200000X0.250000X-0.200000X-0.250000X0.200000X-0.250000X0.200000X0.250000X0*%
%ADD21R,3.200000X2.000000*%
%ADD22R,1.400000X0.400000*%
%ADD23R,1.600000X1.000000*%
%ADD24RoundRect,0.150000X-0.675000X-0.150000X0.675000X-0.150000X0.675000X0.150000X-0.675000X0.150000X0*%
%ADD25RoundRect,0.150000X0.725000X0.150000X-0.725000X0.150000X-0.725000X-0.150000X0.725000X-0.150000X0*%
%ADD26R,1.400000X0.300000*%
%ADD27R,0.300000X1.400000*%
%ADD28R,1.800000X1.200000*%
%ADD29R,1.100000X0.300000*%
%ADD30R,1.200000X0.300000*%
%ADD31R,0.800000X1.100000*%
G04 APERTURE END LIST*
D10*
X42100000Y41500000D03*
X38900000Y41500000D03*
D11*
X23900000Y12950000D03*
X23900000Y11050000D03*
X26100000Y12000000D03*
D12*
X-9150000Y33600000D03*
X-10850000Y33600000D03*
D13*
X-10850000Y35200000D03*
X-9150000Y35200000D03*
D14*
X-19500000Y-12000000D03*
X-19500000Y-13000000D03*
D15*
X6900000Y22550000D03*
X6900000Y24250000D03*
X2100000Y22550000D03*
X2100000Y24250000D03*
D13*
X-6050000Y-900000D03*
X-4350000Y-900000D03*
D12*
X-27550000Y18400000D03*
X-29250000Y18400000D03*
D13*
X-36650000Y-3700000D03*
X-34950000Y-3700000D03*
X-25850000Y26500000D03*
X-24150000Y26500000D03*
D15*
X21500000Y-25850000D03*
X21500000Y-24150000D03*
X35000000Y21150000D03*
X35000000Y22850000D03*
X500000Y22550000D03*
X500000Y24250000D03*
D12*
X-34950000Y-6900000D03*
X-36650000Y-6900000D03*
D15*
X26300000Y-25850000D03*
X26300000Y-24150000D03*
X5300000Y22550000D03*
X5300000Y24250000D03*
X38800000Y34150000D03*
X38800000Y35850000D03*
D16*
X-19500000Y-10600000D03*
X-19500000Y-9600000D03*
D17*
X36500000Y-25300000D03*
X46500000Y-25300000D03*
X46500000Y-10700000D03*
X36500000Y-10700000D03*
D13*
X1400000Y15000000D03*
X3100000Y15000000D03*
D18*
X-32900000Y13200000D03*
X-29700000Y13200000D03*
D19*
X-23600000Y34000000D03*
X-18200000Y34000000D03*
D15*
X33400000Y21150000D03*
X33400000Y22850000D03*
D13*
X-12100000Y15000000D03*
X-10400000Y15000000D03*
X-36650000Y-21700000D03*
X-34950000Y-21700000D03*
X14900000Y15000000D03*
X16600000Y15000000D03*
X-7600000Y15000000D03*
X-5900000Y15000000D03*
D20*
X7000000Y-42150000D03*
X7000000Y-43850000D03*
D12*
X-9150000Y40000000D03*
X-10850000Y40000000D03*
D21*
X44500000Y7700000D03*
X44500000Y16300000D03*
D22*
X-43000000Y7100000D03*
X-43000000Y6300000D03*
X-43000000Y5500000D03*
X-43000000Y4700000D03*
X-43000000Y3900000D03*
D13*
X-25850000Y18400000D03*
X-24150000Y18400000D03*
D15*
X10200000Y-43850000D03*
X10200000Y-42150000D03*
D13*
X-21850000Y-25500000D03*
X-20150000Y-25500000D03*
D12*
X20850000Y39500000D03*
X19150000Y39500000D03*
D13*
X5900000Y15000000D03*
X7600000Y15000000D03*
X-25850000Y23300000D03*
X-24150000Y23300000D03*
D20*
X8600000Y-42150000D03*
X8600000Y-43850000D03*
D12*
X-29650000Y15100000D03*
X-31350000Y15100000D03*
D13*
X-10850000Y36800000D03*
X-9150000Y36800000D03*
D15*
X-1100000Y22550000D03*
X-1100000Y24250000D03*
D13*
X-36650000Y-5300000D03*
X-34950000Y-5300000D03*
D23*
X-34400000Y-15200000D03*
X-34400000Y-10800000D03*
D15*
X42000000Y34150000D03*
X42000000Y35850000D03*
D13*
X-36650000Y-500000D03*
X-34950000Y-500000D03*
D24*
X25875000Y-28095000D03*
X25875000Y-29365000D03*
X25875000Y-30635000D03*
X25875000Y-31905000D03*
X31125000Y-31905000D03*
X31125000Y-30635000D03*
X31125000Y-29365000D03*
X31125000Y-28095000D03*
D12*
X-27550000Y20000000D03*
X-29250000Y20000000D03*
D13*
X-25850000Y20000000D03*
X-24150000Y20000000D03*
D15*
X23100000Y-25850000D03*
X23100000Y-24150000D03*
D25*
X24775000Y25920000D03*
X24775000Y27190000D03*
X24775000Y28460000D03*
X24775000Y29730000D03*
X24775000Y31000000D03*
X24775000Y32270000D03*
X24775000Y33540000D03*
X24775000Y34810000D03*
X24775000Y36080000D03*
X15225000Y36080000D03*
X15225000Y34810000D03*
X15225000Y33540000D03*
X15225000Y32270000D03*
X15225000Y31000000D03*
X15225000Y29730000D03*
X15225000Y28460000D03*
X15225000Y27190000D03*
X15225000Y25920000D03*
D26*
X-13800000Y-7125000D03*
X-13800000Y-7775000D03*
X-13800000Y-8425000D03*
X-13800000Y-9075000D03*
X-13800000Y-9725000D03*
X-13800000Y-10375000D03*
X-13800000Y-11025000D03*
X-13800000Y-11675000D03*
X-13800000Y-12325000D03*
X-13800000Y-12975000D03*
X-13800000Y-13625000D03*
X-13800000Y-14275000D03*
X-13800000Y-14925000D03*
X-13850000Y-15575000D03*
X-13800000Y-16225000D03*
X-13800000Y-16875000D03*
D27*
X-11875000Y-18800000D03*
X-11225000Y-18800000D03*
X-10575000Y-18800000D03*
X-9925000Y-18800000D03*
X-9275000Y-18800000D03*
X-8625000Y-18800000D03*
X-7975000Y-18800000D03*
X-7325000Y-18800000D03*
X-6675000Y-18800000D03*
X-6025000Y-18800000D03*
X-5375000Y-18800000D03*
X-4725000Y-18800000D03*
X-4075000Y-18800000D03*
X-3425000Y-18800000D03*
X-2775000Y-18800000D03*
X-2125000Y-18800000D03*
D26*
X-200000Y-16875000D03*
X-200000Y-16225000D03*
X-200000Y-15575000D03*
X-200000Y-14925000D03*
X-200000Y-14275000D03*
X-200000Y-13625000D03*
X-200000Y-12975000D03*
X-200000Y-12325000D03*
X-200000Y-11675000D03*
X-200000Y-11025000D03*
X-200000Y-10375000D03*
X-200000Y-9725000D03*
X-200000Y-9075000D03*
X-200000Y-8425000D03*
X-200000Y-7775000D03*
X-200000Y-7125000D03*
D27*
X-2125000Y-5200000D03*
X-2775000Y-5200000D03*
X-3425000Y-5200000D03*
X-4075000Y-5200000D03*
X-4725000Y-5200000D03*
X-5375000Y-5200000D03*
X-6025000Y-5200000D03*
X-6675000Y-5200000D03*
X-7325000Y-5200000D03*
X-7975000Y-5200000D03*
X-8625000Y-5200000D03*
X-9275000Y-5200000D03*
X-9925000Y-5200000D03*
X-10575000Y-5200000D03*
X-11225000Y-5200000D03*
X-11875000Y-5200000D03*
D28*
X-17800000Y-12600000D03*
X-17800000Y-10000000D03*
D13*
X-36650000Y-2100000D03*
X-34950000Y-2100000D03*
X-10850000Y32000000D03*
X-9150000Y32000000D03*
D15*
X3700000Y22550000D03*
X3700000Y24250000D03*
X40400000Y34150000D03*
X40400000Y35850000D03*
D13*
X-25850000Y24900000D03*
X-24150000Y24900000D03*
D15*
X8500000Y22550000D03*
X8500000Y24250000D03*
D13*
X-16600000Y15000000D03*
X-14900000Y15000000D03*
X16150000Y-43000000D03*
X17850000Y-43000000D03*
D20*
X24700000Y-24150000D03*
X24700000Y-25850000D03*
D29*
X-6200000Y37275000D03*
X-6200000Y36625000D03*
X-6200000Y35975000D03*
X-6200000Y35325000D03*
X-6200000Y34675000D03*
X-6200000Y34025000D03*
X-6200000Y33375000D03*
X-6200000Y32725000D03*
X200000Y32725000D03*
X200000Y33375000D03*
X200000Y34025000D03*
X200000Y34675000D03*
X200000Y35325000D03*
X200000Y35975000D03*
X200000Y36625000D03*
X200000Y37275000D03*
D30*
X-20900000Y26222500D03*
X-20900000Y25587500D03*
X-20900000Y24952500D03*
X-20900000Y24317500D03*
X-20900000Y23700000D03*
X-20900000Y23047500D03*
X-20900000Y22412500D03*
X-20900000Y21777500D03*
X-15100000Y21777500D03*
X-15100000Y22412500D03*
X-15100000Y23047500D03*
X-15100000Y23682500D03*
X-15100000Y24317500D03*
X-15100000Y24952500D03*
X-15100000Y25587500D03*
X-15100000Y26222500D03*
D15*
X-2700000Y22550000D03*
X-2700000Y24250000D03*
D13*
X-10850000Y38400000D03*
X-9150000Y38400000D03*
X-3100000Y15000000D03*
X-1400000Y15000000D03*
X-21850000Y-27100000D03*
X-20150000Y-27100000D03*
X10400000Y15000000D03*
X12100000Y15000000D03*
X-36650000Y-23300000D03*
X-34950000Y-23300000D03*
D31*
X40950000Y31100000D03*
X39050000Y31100000D03*
X40000000Y28900000D03*
M02*
