M48
; DRILL file {KiCad (6.0.5-0)} date 
; FORMAT={-:-/ absolute / metric / decimal}
; #@! TF.CreationDate,2022-05-27T19:59:44+09:00
; #@! TF.GenerationSoftware,Kicad,Pcbnew,(6.0.5-0)
; #@! TF.FileFunction,MixedPlating,1,2
FMAT,2
METRIC
; #@! TA.AperFunction,Plated,PTH,ViaDrill
T1C0.305
; #@! TA.AperFunction,Plated,PTH,ComponentDrill
T2C0.762
; #@! TA.AperFunction,Plated,PTH,ComponentDrill
T3C0.800
; #@! TA.AperFunction,Plated,PTH,ComponentDrill
T4C0.900
; #@! TA.AperFunction,Plated,PTH,ComponentDrill
T5C1.000
; #@! TA.AperFunction,Plated,PTH,ComponentDrill
T6C1.100
; #@! TA.AperFunction,Plated,PTH,ComponentDrill
T7C1.200
; #@! TA.AperFunction,NonPlated,NPTH,ComponentDrill
T8C0.750
; #@! TA.AperFunction,NonPlated,NPTH,ComponentDrill
T9C1.500
; #@! TA.AperFunction,NonPlated,NPTH,ComponentDrill
T10C3.200
%
G90
G05
T1
X-45.0Y45.0
X-45.0Y40.0
X-45.0Y35.0
X-45.0Y30.0
X-45.0Y20.0
X-45.0Y-25.0
X-45.0Y-30.0
X-45.0Y-40.0
X-45.0Y-45.0
X-40.0Y25.0
X-40.0Y10.0
X-40.0Y-35.0
X-40.0Y-40.0
X-40.0Y-45.0
X-35.662Y0.263
X-35.0Y20.0
X-35.0Y-35.0
X-35.0Y-40.0
X-30.59Y14.404
X-30.295Y11.406
X-30.1Y-45.8
X-30.0Y-35.0
X-28.356Y19.156
X-25.95Y35.447
X-24.931Y3.323
X-22.714Y16.414
X-20.0Y-45.0
X-17.126Y13.366
X-15.0Y45.0
X-10.226Y-6.863
X-10.0Y45.0
X-5.888Y-2.414
X-5.53Y-12.145
X-5.0Y45.0
X-4.412Y-9.914
X-4.297Y-11.858
X-3.891Y-21.666
X-3.162Y21.422
X-2.901Y-16.968
X-1.775Y35.834
X-0.934Y36.035
X0.0Y45.0
X0.0Y30.0
X1.62Y-18.185
X2.663Y-19.268
X5.0Y45.0
X5.0Y40.0
X5.0Y35.0
X6.632Y11.472
X10.0Y45.0
X10.0Y40.0
X12.09Y-0.704
X13.425Y9.671
X15.0Y40.0
X18.246Y17.822
X18.929Y20.992
X19.405Y22.172
X19.944Y23.229
X20.0Y45.0
X20.0Y35.0
X20.0Y-35.0
X20.0Y-40.0
X20.623Y25.892
X21.056Y28.244
X22.169Y30.513
X23.305Y32.14
X25.0Y45.0
X25.0Y40.0
X25.0Y20.0
X25.0Y-35.0
X25.142Y0.489
X27.186Y-25.064
X30.0Y45.0
X30.0Y30.0
X30.0Y20.0
X30.0Y-45.0
X32.441Y21.119
X35.0Y45.0
X35.0Y40.0
X35.0Y5.0
X35.0Y-20.0
X39.617Y36.609
X40.0Y45.0
X40.0Y25.0
X40.0Y-5.0
X40.0Y-15.0
X40.0Y-20.0
X45.0Y45.0
X45.0Y40.0
X45.0Y25.0
X45.0Y0.0
X45.0Y-5.0
X45.0Y-15.0
X45.0Y-20.0
X45.0Y-30.0
X45.0Y-45.0
T2
X-34.0Y41.62
X-34.0Y39.08
X-34.0Y36.54
X-34.0Y34.0
X-34.0Y31.46
X-34.0Y28.92
X-34.0Y26.38
X-31.46Y41.62
X-31.46Y39.08
X-31.46Y36.54
X-31.46Y34.0
X-31.46Y31.46
X-31.46Y28.92
X-31.46Y26.38
X47.0Y39.08
X47.0Y36.54
X47.0Y34.0
X47.0Y31.46
X47.0Y28.92
T3
X-45.1Y16.95
X-45.1Y13.65
X-42.6Y16.95
X-42.6Y13.65
X-40.1Y16.95
X-40.1Y13.65
T4
X-44.27Y-6.38
X-44.27Y-8.92
X-44.27Y-11.46
X-44.27Y-14.0
X-44.27Y-16.54
X-44.27Y-19.08
X-44.27Y-21.62
X-41.84Y38.155
X-41.84Y35.385
X-41.84Y32.615
X-41.84Y29.845
X-41.73Y-6.38
X-41.73Y-8.92
X-41.73Y-11.46
X-41.73Y-14.0
X-41.73Y-16.54
X-41.73Y-19.08
X-41.73Y-21.62
X-39.0Y39.54
X-39.0Y36.77
X-39.0Y34.0
X-39.0Y31.23
X-39.0Y28.46
X-28.59Y7.05
X-28.59Y4.51
X-28.59Y1.97
X-28.59Y-0.57
X-28.59Y-3.11
X-28.59Y-5.65
X-28.59Y-8.19
X-28.59Y-10.73
X-28.59Y-13.27
X-28.59Y-15.81
X-28.59Y-18.35
X-28.59Y-20.89
X-28.59Y-23.43
X-28.59Y-25.97
X-28.59Y-28.51
X-28.59Y-31.05
X-26.05Y9.59
X-26.05Y-33.59
X-25.0Y-43.0
X-25.0Y-43.0
X-23.51Y9.59
X-23.51Y-33.59
X-23.5Y45.1
X-21.43Y-5.19
X-21.43Y-7.73
X-21.43Y-10.27
X-21.43Y-12.81
X-21.0Y42.6
X-20.97Y9.59
X-20.97Y-33.59
X-18.5Y45.1
X-18.43Y9.59
X-18.43Y-33.59
X-15.89Y9.59
X-15.89Y-33.59
X-15.796Y-43.081
X-14.0Y-41.285
X-13.81Y2.43
X-13.35Y9.59
X-13.35Y-33.59
X-12.204Y-43.081
X-11.27Y2.43
X-10.81Y9.59
X-10.81Y-33.59
X-8.73Y2.43
X-8.27Y9.59
X-8.27Y-33.59
X-6.19Y2.43
X-5.73Y9.59
X-5.73Y-33.59
X-3.19Y9.59
X-3.19Y-33.59
X-0.65Y9.59
X-0.65Y-33.59
X1.89Y9.59
X1.89Y-33.59
X4.43Y9.59
X4.43Y-33.59
X6.97Y9.59
X6.97Y-33.59
X9.51Y9.59
X9.51Y-33.59
X12.05Y9.59
X12.05Y-33.59
X14.59Y7.05
X14.59Y4.51
X14.59Y1.97
X14.59Y-0.57
X14.59Y-3.11
X14.59Y-5.65
X14.59Y-8.19
X14.59Y-10.73
X14.59Y-13.27
X14.59Y-15.81
X14.59Y-18.35
X14.59Y-20.89
X14.59Y-23.43
X14.59Y-25.97
X14.59Y-28.51
X14.59Y-31.05
X23.0Y-43.0
X23.0Y-43.0
X23.495Y2.16
X23.495Y-0.38
X23.495Y-2.92
X23.495Y-5.46
X23.495Y-8.0
X23.495Y-10.54
X23.495Y-13.08
X23.495Y-15.62
X23.495Y-18.16
X31.115Y2.16
X31.115Y-0.38
X31.115Y-2.92
X31.115Y-5.46
X31.115Y-8.0
X31.115Y-10.54
X31.115Y-13.08
X31.115Y-15.62
X31.115Y-18.16
X32.73Y12.0
X35.27Y12.0
T5
X-45.5Y9.6
X-45.5Y1.4
X-42.0Y-31.4
X-40.0Y-31.4
X-38.0Y-31.4
X-31.4Y-38.0
X-31.4Y-40.0
X-31.4Y-42.0
X-3.25Y-40.75
X-3.25Y-45.25
X3.25Y-40.75
X3.25Y-45.25
X27.75Y-36.75
X27.75Y-41.25
X34.25Y-36.75
X34.25Y-41.25
X34.75Y-29.75
X34.75Y-34.25
X34.75Y-43.75
X34.75Y-48.25
X37.5Y2.0
X37.5Y0.0
X37.5Y-2.0
X37.5Y-4.0
X37.5Y-6.0
X41.25Y-29.75
X41.25Y-34.25
X41.25Y-43.75
X41.25Y-48.25
X41.75Y-36.75
X41.75Y-41.25
X48.25Y-36.75
X48.25Y-41.25
T6
X-37.0Y9.54
X-37.0Y7.0
X-37.0Y4.46
T7
X47.5Y2.85
X47.5Y-6.85
T8
X-35.3Y-13.0
X-33.5Y-13.0
T9
X-46.0Y-34.0
X-34.0Y-46.0
T10
X-40.42Y46.5
X-40.42Y21.5
T0
M30
